<?xml version="1.0" encoding="utf-8" standalone="no"?>
<!DOCTYPE svg PUBLIC "-//W3C//DTD SVG 1.1//EN"
  "http://www.w3.org/Graphics/SVG/1.1/DTD/svg11.dtd">
<!-- Created with matplotlib (http://matplotlib.org/) -->
<svg height="316pt" version="1.1" viewBox="0 0 460 316" width="460pt" xmlns="http://www.w3.org/2000/svg" xmlns:xlink="http://www.w3.org/1999/xlink">
 <defs>
  <style type="text/css">
*{stroke-linecap:butt;stroke-linejoin:round;stroke-miterlimit:100000;}
  </style>
 </defs>
 <g id="figure_1">
  <g id="patch_1">
   <path d="M 0 316.8 
L 460.8 316.8 
L 460.8 0 
L 0 0 
z
" style="fill:#ffffff;"/>
  </g>
  <g id="axes_1">
   <g id="patch_2">
    <path d="M 57.6 285.12 
L 414.72 285.12 
L 414.72 31.68 
L 57.6 31.68 
z
" style="fill:#ffffff;"/>
   </g>
   <g id="matplotlib.axis_1">
    <g id="xtick_1">
     <g id="line2d_1">
      <defs>
       <path d="M 0 0 
L 0 0 
" id="m43efd37d6f" style="stroke:#262626;stroke-width:0.8;"/>
      </defs>
      <g>
       <use style="fill:#262626;stroke:#262626;stroke-width:0.8;" x="146.88" xlink:href="#m43efd37d6f" y="285.12"/>
      </g>
     </g>
     <g id="line2d_2">
      <g>
       <use style="fill:#262626;stroke:#262626;stroke-width:0.8;" x="146.88" xlink:href="#m43efd37d6f" y="31.68"/>
      </g>
     </g>
     <g id="text_1">
      <!-- Corrected -->
      <defs>
       <path d="M 40.09375 8.5 
Q 37.640625 3.421875 33.609375 1.21875 
Q 29.59375 -0.984375 23.640625 -0.984375 
Q 13.625 -0.984375 8.90625 5.75 
Q 4.203125 12.5 4.203125 26.171875 
Q 4.203125 53.8125 23.640625 53.8125 
Q 29.640625 53.8125 33.640625 51.609375 
Q 37.640625 49.421875 40.09375 44.625 
L 40.1875 44.625 
Q 40.1875 45.125 40.15625 46.171875 
Q 40.140625 47.21875 40.109375 48.359375 
Q 40.09375 49.515625 40.09375 50.53125 
Q 40.09375 51.5625 40.09375 52 
L 40.09375 72.46875 
L 48.875 72.46875 
L 48.875 10.890625 
Q 48.875 8.984375 48.890625 7.21875 
Q 48.921875 5.46875 48.96875 4 
Q 49.03125 2.546875 49.078125 1.484375 
Q 49.125 0.4375 49.171875 0 
L 40.765625 0 
Q 40.671875 0.484375 40.59375 1.390625 
Q 40.53125 2.296875 40.453125 3.46875 
Q 40.375 4.640625 40.328125 5.9375 
Q 40.28125 7.234375 40.28125 8.5 
z
M 13.421875 26.46875 
Q 13.421875 21 14.109375 17.09375 
Q 14.796875 13.1875 16.3125 10.671875 
Q 17.828125 8.15625 20.171875 6.984375 
Q 22.515625 5.8125 25.875 5.8125 
Q 29.34375 5.8125 32 6.9375 
Q 34.671875 8.0625 36.453125 10.578125 
Q 38.234375 13.09375 39.15625 17.140625 
Q 40.09375 21.1875 40.09375 27.046875 
Q 40.09375 32.671875 39.15625 36.546875 
Q 38.234375 40.4375 36.421875 42.828125 
Q 34.625 45.21875 32 46.265625 
Q 29.390625 47.3125 25.984375 47.3125 
Q 22.75 47.3125 20.40625 46.1875 
Q 18.0625 45.0625 16.5 42.578125 
Q 14.9375 40.09375 14.171875 36.109375 
Q 13.421875 32.125 13.421875 26.46875 
" id="LiberationSans-64"/>
       <path d="M 6.9375 0 
L 6.9375 40.53125 
Q 6.9375 42.1875 6.90625 43.921875 
Q 6.890625 45.65625 6.828125 47.265625 
Q 6.78125 48.875 6.734375 50.28125 
Q 6.6875 51.703125 6.640625 52.828125 
L 14.9375 52.828125 
Q 14.984375 51.703125 15.0625 50.265625 
Q 15.140625 48.828125 15.203125 47.3125 
Q 15.28125 45.796875 15.296875 44.40625 
Q 15.328125 43.015625 15.328125 42.046875 
L 15.53125 42.046875 
Q 16.453125 45.0625 17.5 47.28125 
Q 18.5625 49.515625 19.96875 50.953125 
Q 21.390625 52.390625 23.34375 53.09375 
Q 25.296875 53.8125 28.078125 53.8125 
Q 29.15625 53.8125 30.125 53.640625 
Q 31.109375 53.46875 31.640625 53.328125 
L 31.640625 45.265625 
Q 30.765625 45.515625 29.59375 45.625 
Q 28.421875 45.75 26.953125 45.75 
Q 23.921875 45.75 21.796875 44.375 
Q 19.671875 43.015625 18.328125 40.59375 
Q 17 38.1875 16.359375 34.84375 
Q 15.71875 31.5 15.71875 27.546875 
L 15.71875 0 
z
" id="LiberationSans-72"/>
       <path d="M 13.421875 26.65625 
Q 13.421875 22.125 14.078125 18.3125 
Q 14.75 14.5 16.3125 11.734375 
Q 17.875 8.984375 20.4375 7.46875 
Q 23 5.953125 26.765625 5.953125 
Q 31.453125 5.953125 34.59375 8.484375 
Q 37.75 11.03125 38.484375 16.3125 
L 47.359375 15.71875 
Q 46.921875 12.453125 45.453125 9.421875 
Q 44 6.390625 41.484375 4.09375 
Q 38.96875 1.8125 35.34375 0.40625 
Q 31.734375 -0.984375 27 -0.984375 
Q 20.796875 -0.984375 16.453125 1.109375 
Q 12.109375 3.21875 9.390625 6.90625 
Q 6.6875 10.59375 5.46875 15.59375 
Q 4.25 20.609375 4.25 26.46875 
Q 4.25 31.78125 5.125 35.859375 
Q 6 39.9375 7.59375 42.984375 
Q 9.1875 46.046875 11.328125 48.125 
Q 13.484375 50.203125 15.984375 51.4375 
Q 18.5 52.6875 21.28125 53.25 
Q 24.078125 53.8125 26.90625 53.8125 
Q 31.34375 53.8125 34.8125 52.59375 
Q 38.28125 51.375 40.796875 49.25 
Q 43.3125 47.125 44.875 44.234375 
Q 46.4375 41.359375 47.078125 38.03125 
L 38.03125 37.359375 
Q 37.359375 41.75 34.5625 44.328125 
Q 31.78125 46.921875 26.65625 46.921875 
Q 22.90625 46.921875 20.390625 45.671875 
Q 17.875 44.4375 16.3125 41.921875 
Q 14.75 39.40625 14.078125 35.59375 
Q 13.421875 31.78125 13.421875 26.65625 
" id="LiberationSans-63"/>
       <path d="M 27.046875 0.390625 
Q 25.046875 -0.140625 22.96875 -0.453125 
Q 20.90625 -0.78125 18.171875 -0.78125 
Q 7.625 -0.78125 7.625 11.1875 
L 7.625 46.4375 
L 1.515625 46.4375 
L 1.515625 52.828125 
L 7.953125 52.828125 
L 10.546875 64.65625 
L 16.40625 64.65625 
L 16.40625 52.828125 
L 26.171875 52.828125 
L 26.171875 46.4375 
L 16.40625 46.4375 
L 16.40625 13.09375 
Q 16.40625 9.28125 17.640625 7.734375 
Q 18.890625 6.203125 21.96875 6.203125 
Q 23.25 6.203125 24.4375 6.390625 
Q 25.640625 6.59375 27.046875 6.890625 
z
" id="LiberationSans-74"/>
       <path d="M 51.421875 26.46875 
Q 51.421875 12.59375 45.3125 5.796875 
Q 39.203125 -0.984375 27.59375 -0.984375 
Q 22.078125 -0.984375 17.71875 0.671875 
Q 13.375 2.34375 10.375 5.765625 
Q 7.375 9.1875 5.78125 14.328125 
Q 4.203125 19.484375 4.203125 26.46875 
Q 4.203125 53.8125 27.875 53.8125 
Q 34.03125 53.8125 38.5 52.09375 
Q 42.96875 50.390625 45.828125 46.96875 
Q 48.6875 43.5625 50.046875 38.421875 
Q 51.421875 33.296875 51.421875 26.46875 
M 42.1875 26.46875 
Q 42.1875 32.625 41.234375 36.625 
Q 40.28125 40.625 38.453125 43.015625 
Q 36.625 45.40625 33.984375 46.359375 
Q 31.34375 47.3125 28.03125 47.3125 
Q 24.65625 47.3125 21.9375 46.3125 
Q 19.234375 45.3125 17.328125 42.890625 
Q 15.4375 40.484375 14.421875 36.46875 
Q 13.421875 32.46875 13.421875 26.46875 
Q 13.421875 20.3125 14.5 16.28125 
Q 15.578125 12.25 17.453125 9.859375 
Q 19.34375 7.46875 21.90625 6.484375 
Q 24.46875 5.515625 27.484375 5.515625 
Q 30.859375 5.515625 33.59375 6.46875 
Q 36.328125 7.421875 38.234375 9.8125 
Q 40.140625 12.203125 41.15625 16.25 
Q 42.1875 20.3125 42.1875 26.46875 
" id="LiberationSans-6f"/>
       <path d="M 13.484375 24.5625 
Q 13.484375 20.40625 14.328125 16.90625 
Q 15.1875 13.421875 16.96875 10.90625 
Q 18.75 8.40625 21.53125 7 
Q 24.3125 5.609375 28.21875 5.609375 
Q 33.9375 5.609375 37.375 7.90625 
Q 40.828125 10.203125 42.046875 13.71875 
L 49.75 11.53125 
Q 48.921875 9.328125 47.4375 7.109375 
Q 45.953125 4.890625 43.453125 3.09375 
Q 40.96875 1.3125 37.234375 0.15625 
Q 33.5 -0.984375 28.21875 -0.984375 
Q 16.5 -0.984375 10.375 6 
Q 4.25 12.984375 4.25 26.765625 
Q 4.25 34.1875 6.09375 39.328125 
Q 7.953125 44.484375 11.171875 47.703125 
Q 14.40625 50.921875 18.703125 52.359375 
Q 23 53.8125 27.875 53.8125 
Q 34.515625 53.8125 38.984375 51.65625 
Q 43.453125 49.515625 46.15625 45.71875 
Q 48.875 41.9375 50.015625 36.8125 
Q 51.171875 31.6875 51.171875 25.734375 
L 51.171875 24.5625 
z
M 42.09375 31.296875 
Q 41.359375 39.65625 37.84375 43.484375 
Q 34.328125 47.3125 27.734375 47.3125 
Q 25.53125 47.3125 23.109375 46.609375 
Q 20.703125 45.90625 18.65625 44.09375 
Q 16.609375 42.28125 15.1875 39.171875 
Q 13.765625 36.078125 13.578125 31.296875 
z
" id="LiberationSans-65"/>
       <path d="M 38.671875 62.203125 
Q 32.8125 62.203125 28.296875 60.25 
Q 23.78125 58.296875 20.71875 54.6875 
Q 17.671875 51.078125 16.109375 46 
Q 14.546875 40.921875 14.546875 34.71875 
Q 14.546875 28.515625 16.234375 23.359375 
Q 17.921875 18.21875 21.0625 14.5 
Q 24.21875 10.796875 28.78125 8.734375 
Q 33.34375 6.6875 39.0625 6.6875 
Q 43.0625 6.6875 46.359375 7.734375 
Q 49.65625 8.796875 52.3125 10.6875 
Q 54.984375 12.59375 57.078125 15.203125 
Q 59.1875 17.828125 60.796875 21 
L 68.40625 17.1875 
Q 66.546875 13.328125 63.8125 10 
Q 61.078125 6.6875 57.390625 4.25 
Q 53.71875 1.8125 49.046875 0.40625 
Q 44.390625 -0.984375 38.625 -0.984375 
Q 30.28125 -0.984375 24 1.671875 
Q 17.71875 4.34375 13.5 9.109375 
Q 9.28125 13.875 7.171875 20.40625 
Q 5.078125 26.953125 5.078125 34.71875 
Q 5.078125 42.78125 7.296875 49.265625 
Q 9.515625 55.765625 13.78125 60.328125 
Q 18.0625 64.890625 24.3125 67.359375 
Q 30.5625 69.828125 38.578125 69.828125 
Q 49.5625 69.828125 56.9375 65.53125 
Q 64.3125 61.234375 67.78125 52.78125 
L 58.9375 49.859375 
Q 57.953125 52.296875 56.296875 54.515625 
Q 54.640625 56.734375 52.140625 58.4375 
Q 49.65625 60.15625 46.3125 61.171875 
Q 42.96875 62.203125 38.671875 62.203125 
" id="LiberationSans-43"/>
      </defs>
      <g style="fill:#262626;" transform="translate(129.31875 296.5175)scale(0.08 -0.08)">
       <use xlink:href="#LiberationSans-43"/>
       <use x="72.216796875" xlink:href="#LiberationSans-6f"/>
       <use x="127.83203125" xlink:href="#LiberationSans-72"/>
       <use x="161.1328125" xlink:href="#LiberationSans-72"/>
       <use x="194.43359375" xlink:href="#LiberationSans-65"/>
       <use x="250.048828125" xlink:href="#LiberationSans-63"/>
       <use x="300.048828125" xlink:href="#LiberationSans-74"/>
       <use x="327.83203125" xlink:href="#LiberationSans-65"/>
       <use x="383.447265625" xlink:href="#LiberationSans-64"/>
      </g>
     </g>
    </g>
    <g id="xtick_2">
     <g id="line2d_3">
      <g>
       <use style="fill:#262626;stroke:#262626;stroke-width:0.8;" x="325.44" xlink:href="#m43efd37d6f" y="285.12"/>
      </g>
     </g>
     <g id="line2d_4">
      <g>
       <use style="fill:#262626;stroke:#262626;stroke-width:0.8;" x="325.44" xlink:href="#m43efd37d6f" y="31.68"/>
      </g>
     </g>
     <g id="text_2">
      <!-- Original -->
      <defs>
       <path d="M 26.765625 -20.75 
Q 22.21875 -20.75 18.703125 -19.8125 
Q 15.1875 -18.890625 12.6875 -17.15625 
Q 10.203125 -15.4375 8.640625 -13.03125 
Q 7.078125 -10.640625 6.390625 -7.71875 
L 15.234375 -6.453125 
Q 16.109375 -10.109375 19.109375 -12.078125 
Q 22.125 -14.0625 27 -14.0625 
Q 29.984375 -14.0625 32.421875 -13.234375 
Q 34.859375 -12.40625 36.5625 -10.5625 
Q 38.28125 -8.734375 39.203125 -5.796875 
Q 40.140625 -2.875 40.140625 1.3125 
L 40.140625 9.8125 
L 40.046875 9.8125 
Q 39.0625 7.8125 37.625 5.984375 
Q 36.1875 4.15625 34.109375 2.734375 
Q 32.03125 1.3125 29.296875 0.453125 
Q 26.5625 -0.390625 23.046875 -0.390625 
Q 18.015625 -0.390625 14.421875 1.296875 
Q 10.84375 2.984375 8.5625 6.34375 
Q 6.296875 9.71875 5.25 14.71875 
Q 4.203125 19.734375 4.203125 26.3125 
Q 4.203125 32.671875 5.25 37.75 
Q 6.296875 42.828125 8.65625 46.359375 
Q 11.03125 49.90625 14.8125 51.78125 
Q 18.609375 53.65625 24.03125 53.65625 
Q 29.640625 53.65625 33.765625 51.09375 
Q 37.890625 48.53125 40.140625 43.796875 
L 40.234375 43.796875 
Q 40.234375 45.015625 40.296875 46.53125 
Q 40.375 48.046875 40.453125 49.390625 
Q 40.53125 50.734375 40.625 51.703125 
Q 40.71875 52.6875 40.828125 52.828125 
L 49.171875 52.828125 
Q 49.125 52.390625 49.078125 51.34375 
Q 49.03125 50.296875 48.96875 48.828125 
Q 48.921875 47.359375 48.890625 45.578125 
Q 48.875 43.796875 48.875 41.890625 
L 48.875 1.515625 
Q 48.875 -9.578125 43.421875 -15.15625 
Q 37.984375 -20.75 26.765625 -20.75 
M 40.140625 26.421875 
Q 40.140625 31.9375 38.9375 35.859375 
Q 37.75 39.796875 35.796875 42.28125 
Q 33.84375 44.78125 31.328125 45.953125 
Q 28.8125 47.125 26.171875 47.125 
Q 22.796875 47.125 20.375 45.953125 
Q 17.96875 44.78125 16.375 42.265625 
Q 14.796875 39.75 14.03125 35.8125 
Q 13.28125 31.890625 13.28125 26.421875 
Q 13.28125 20.703125 14.03125 16.8125 
Q 14.796875 12.9375 16.359375 10.546875 
Q 17.921875 8.15625 20.3125 7.125 
Q 22.703125 6.109375 26.03125 6.109375 
Q 28.65625 6.109375 31.171875 7.21875 
Q 33.6875 8.34375 35.6875 10.78125 
Q 37.703125 13.234375 38.921875 17.09375 
Q 40.140625 20.953125 40.140625 26.421875 
" id="LiberationSans-67"/>
       <path d="M 20.21875 -0.984375 
Q 12.25 -0.984375 8.25 3.21875 
Q 4.25 7.421875 4.25 14.75 
Q 4.25 19.96875 6.21875 23.3125 
Q 8.203125 26.65625 11.390625 28.5625 
Q 14.59375 30.46875 18.6875 31.203125 
Q 22.796875 31.9375 27.046875 32.03125 
L 38.921875 32.234375 
L 38.921875 35.109375 
Q 38.921875 38.375 38.234375 40.671875 
Q 37.546875 42.96875 36.125 44.375 
Q 34.71875 45.796875 32.59375 46.453125 
Q 30.46875 47.125 27.59375 47.125 
Q 25.046875 47.125 23 46.75 
Q 20.953125 46.390625 19.4375 45.4375 
Q 17.921875 44.484375 16.984375 42.84375 
Q 16.0625 41.21875 15.765625 38.71875 
L 6.59375 39.546875 
Q 7.078125 42.671875 8.4375 45.28125 
Q 9.8125 47.90625 12.328125 49.796875 
Q 14.84375 51.703125 18.625 52.75 
Q 22.40625 53.8125 27.78125 53.8125 
Q 37.75 53.8125 42.765625 49.234375 
Q 47.796875 44.671875 47.796875 36.03125 
L 47.796875 13.28125 
Q 47.796875 9.375 48.828125 7.390625 
Q 49.859375 5.421875 52.734375 5.421875 
Q 53.46875 5.421875 54.203125 5.515625 
Q 54.9375 5.609375 55.609375 5.765625 
L 55.609375 0.296875 
Q 53.953125 -0.09375 52.3125 -0.28125 
Q 50.6875 -0.484375 48.828125 -0.484375 
Q 46.34375 -0.484375 44.5625 0.171875 
Q 42.78125 0.828125 41.65625 2.171875 
Q 40.53125 3.515625 39.9375 5.484375 
Q 39.359375 7.46875 39.203125 10.109375 
L 38.921875 10.109375 
Q 37.5 7.5625 35.8125 5.515625 
Q 34.125 3.46875 31.875 2.03125 
Q 29.640625 0.59375 26.78125 -0.1875 
Q 23.921875 -0.984375 20.21875 -0.984375 
M 22.21875 5.609375 
Q 26.421875 5.609375 29.5625 7.140625 
Q 32.71875 8.6875 34.78125 11.078125 
Q 36.859375 13.484375 37.890625 16.3125 
Q 38.921875 19.140625 38.921875 21.734375 
L 38.921875 26.078125 
L 29.296875 25.875 
Q 26.078125 25.828125 23.171875 25.40625 
Q 20.265625 25 18.0625 23.78125 
Q 15.875 22.5625 14.578125 20.359375 
Q 13.28125 18.171875 13.28125 14.59375 
Q 13.28125 10.296875 15.59375 7.953125 
Q 17.921875 5.609375 22.21875 5.609375 
" id="LiberationSans-61"/>
       <path d="M 73 34.71875 
Q 73 26.65625 70.671875 20.0625 
Q 68.359375 13.484375 63.96875 8.796875 
Q 59.578125 4.109375 53.21875 1.5625 
Q 46.875 -0.984375 38.8125 -0.984375 
Q 30.328125 -0.984375 23.921875 1.671875 
Q 17.53125 4.34375 13.28125 9.109375 
Q 9.03125 13.875 6.875 20.40625 
Q 4.734375 26.953125 4.734375 34.71875 
Q 4.734375 42.78125 6.984375 49.265625 
Q 9.234375 55.765625 13.578125 60.328125 
Q 17.921875 64.890625 24.296875 67.359375 
Q 30.671875 69.828125 38.921875 69.828125 
Q 47.125 69.828125 53.484375 67.328125 
Q 59.859375 64.84375 64.171875 60.25 
Q 68.5 55.671875 70.75 49.171875 
Q 73 42.671875 73 34.71875 
M 63.484375 34.71875 
Q 63.484375 40.921875 61.890625 46 
Q 60.296875 51.078125 57.203125 54.6875 
Q 54.109375 58.296875 49.515625 60.25 
Q 44.921875 62.203125 38.921875 62.203125 
Q 32.765625 62.203125 28.125 60.25 
Q 23.484375 58.296875 20.375 54.6875 
Q 17.28125 51.078125 15.734375 46 
Q 14.203125 40.921875 14.203125 34.71875 
Q 14.203125 28.515625 15.796875 23.359375 
Q 17.390625 18.21875 20.484375 14.484375 
Q 23.578125 10.75 28.1875 8.671875 
Q 32.8125 6.59375 38.8125 6.59375 
Q 45.265625 6.59375 49.921875 8.6875 
Q 54.59375 10.796875 57.59375 14.53125 
Q 60.59375 18.265625 62.03125 23.4375 
Q 63.484375 28.609375 63.484375 34.71875 
" id="LiberationSans-4f"/>
       <path d="M 6.6875 64.0625 
L 6.6875 72.46875 
L 15.484375 72.46875 
L 15.484375 64.0625 
z
M 6.6875 0 
L 6.6875 52.828125 
L 15.484375 52.828125 
L 15.484375 0 
z
" id="LiberationSans-69"/>
       <path d="M 40.28125 0 
L 40.28125 33.5 
Q 40.28125 37.359375 39.71875 39.9375 
Q 39.15625 42.53125 37.890625 44.109375 
Q 36.625 45.703125 34.546875 46.359375 
Q 32.46875 47.015625 29.390625 47.015625 
Q 26.265625 47.015625 23.75 45.921875 
Q 21.234375 44.828125 19.453125 42.75 
Q 17.671875 40.671875 16.6875 37.625 
Q 15.71875 34.578125 15.71875 30.609375 
L 15.71875 0 
L 6.9375 0 
L 6.9375 41.546875 
Q 6.9375 43.21875 6.90625 45.046875 
Q 6.890625 46.875 6.828125 48.5 
Q 6.78125 50.140625 6.734375 51.3125 
Q 6.6875 52.484375 6.640625 52.828125 
L 14.9375 52.828125 
Q 14.984375 52.59375 15.03125 51.515625 
Q 15.09375 50.4375 15.15625 49.046875 
Q 15.234375 47.65625 15.28125 46.21875 
Q 15.328125 44.78125 15.328125 43.796875 
L 15.484375 43.796875 
Q 16.75 46.09375 18.265625 47.953125 
Q 19.78125 49.8125 21.78125 51.09375 
Q 23.78125 52.390625 26.359375 53.09375 
Q 28.953125 53.8125 32.375 53.8125 
Q 36.765625 53.8125 39.9375 52.734375 
Q 43.109375 51.65625 45.15625 49.40625 
Q 47.21875 47.171875 48.171875 43.625 
Q 49.125 40.09375 49.125 35.203125 
L 49.125 0 
z
" id="LiberationSans-6e"/>
       <path d="M 6.734375 0 
L 6.734375 72.46875 
L 15.53125 72.46875 
L 15.53125 0 
z
" id="LiberationSans-6c"/>
      </defs>
      <g style="fill:#262626;" transform="translate(311.6575 296.5175)scale(0.08 -0.08)">
       <use xlink:href="#LiberationSans-4f"/>
       <use x="77.783203125" xlink:href="#LiberationSans-72"/>
       <use x="111.083984375" xlink:href="#LiberationSans-69"/>
       <use x="133.30078125" xlink:href="#LiberationSans-67"/>
       <use x="188.916015625" xlink:href="#LiberationSans-69"/>
       <use x="211.1328125" xlink:href="#LiberationSans-6e"/>
       <use x="266.748046875" xlink:href="#LiberationSans-61"/>
       <use x="322.36328125" xlink:href="#LiberationSans-6c"/>
      </g>
     </g>
    </g>
   </g>
   <g id="matplotlib.axis_2">
    <g id="ytick_1">
     <g id="line2d_5">
      <path clip-path="url(#pe06807c249)" d="M 57.6 285.12 
L 414.72 285.12 
" style="fill:none;stroke:#cccccc;stroke-linecap:round;stroke-width:0.8;"/>
     </g>
     <g id="line2d_6">
      <g>
       <use style="fill:#262626;stroke:#262626;stroke-width:0.8;" x="57.6" xlink:href="#m43efd37d6f" y="285.12"/>
      </g>
     </g>
     <g id="line2d_7">
      <g>
       <use style="fill:#262626;stroke:#262626;stroke-width:0.8;" x="414.72" xlink:href="#m43efd37d6f" y="285.12"/>
      </g>
     </g>
     <g id="text_3">
      <!-- 0 -->
      <defs>
       <path d="M 51.703125 34.421875 
Q 51.703125 24.515625 49.828125 17.75 
Q 47.953125 10.984375 44.703125 6.8125 
Q 41.453125 2.640625 37.0625 0.828125 
Q 32.671875 -0.984375 27.6875 -0.984375 
Q 22.65625 -0.984375 18.3125 0.828125 
Q 13.96875 2.640625 10.765625 6.78125 
Q 7.5625 10.9375 5.734375 17.703125 
Q 3.90625 24.46875 3.90625 34.421875 
Q 3.90625 44.828125 5.734375 51.640625 
Q 7.5625 58.453125 10.78125 62.5 
Q 14.015625 66.546875 18.40625 68.1875 
Q 22.796875 69.828125 27.984375 69.828125 
Q 32.90625 69.828125 37.21875 68.1875 
Q 41.546875 66.546875 44.765625 62.5 
Q 48 58.453125 49.84375 51.640625 
Q 51.703125 44.828125 51.703125 34.421875 
M 42.78125 34.421875 
Q 42.78125 42.625 41.796875 48.0625 
Q 40.828125 53.515625 38.921875 56.765625 
Q 37.015625 60.015625 34.25 61.359375 
Q 31.5 62.703125 27.984375 62.703125 
Q 24.265625 62.703125 21.4375 61.328125 
Q 18.609375 59.96875 16.671875 56.71875 
Q 14.75 53.46875 13.765625 48.015625 
Q 12.796875 42.578125 12.796875 34.421875 
Q 12.796875 26.515625 13.796875 21.09375 
Q 14.796875 15.671875 16.71875 12.375 
Q 18.65625 9.078125 21.4375 7.640625 
Q 24.21875 6.203125 27.78125 6.203125 
Q 31.25 6.203125 34.03125 7.640625 
Q 36.8125 9.078125 38.734375 12.375 
Q 40.671875 15.671875 41.71875 21.09375 
Q 42.78125 26.515625 42.78125 34.421875 
" id="LiberationSans-30"/>
      </defs>
      <g style="fill:#262626;" transform="translate(47.55125 287.18875)scale(0.08 -0.08)">
       <use xlink:href="#LiberationSans-30"/>
      </g>
     </g>
    </g>
    <g id="ytick_2">
     <g id="line2d_8">
      <path clip-path="url(#pe06807c249)" d="M 57.6 248.914286 
L 414.72 248.914286 
" style="fill:none;stroke:#cccccc;stroke-linecap:round;stroke-width:0.8;"/>
     </g>
     <g id="line2d_9">
      <g>
       <use style="fill:#262626;stroke:#262626;stroke-width:0.8;" x="57.6" xlink:href="#m43efd37d6f" y="248.914285714"/>
      </g>
     </g>
     <g id="line2d_10">
      <g>
       <use style="fill:#262626;stroke:#262626;stroke-width:0.8;" x="414.72" xlink:href="#m43efd37d6f" y="248.914285714"/>
      </g>
     </g>
     <g id="text_4">
      <!-- 50 -->
      <defs>
       <path d="M 51.421875 22.40625 
Q 51.421875 17.234375 49.859375 12.9375 
Q 48.296875 8.640625 45.21875 5.53125 
Q 42.140625 2.4375 37.578125 0.71875 
Q 33.015625 -0.984375 27 -0.984375 
Q 21.578125 -0.984375 17.546875 0.28125 
Q 13.53125 1.5625 10.734375 3.78125 
Q 7.953125 6 6.3125 8.984375 
Q 4.6875 11.96875 4 15.375 
L 12.890625 16.40625 
Q 13.421875 14.453125 14.390625 12.625 
Q 15.375 10.796875 17.0625 9.34375 
Q 18.75 7.90625 21.21875 7.046875 
Q 23.6875 6.203125 27.203125 6.203125 
Q 30.609375 6.203125 33.390625 7.25 
Q 36.1875 8.296875 38.15625 10.34375 
Q 40.140625 12.40625 41.203125 15.375 
Q 42.28125 18.359375 42.28125 22.21875 
Q 42.28125 25.390625 41.25 28.046875 
Q 40.234375 30.71875 38.328125 32.640625 
Q 36.421875 34.578125 33.65625 35.640625 
Q 30.90625 36.71875 27.390625 36.71875 
Q 25.203125 36.71875 23.34375 36.328125 
Q 21.484375 35.9375 19.890625 35.25 
Q 18.3125 34.578125 17.015625 33.671875 
Q 15.71875 32.765625 14.59375 31.78125 
L 6 31.78125 
L 8.296875 68.796875 
L 47.40625 68.796875 
L 47.40625 61.328125 
L 16.3125 61.328125 
L 14.984375 39.5 
Q 17.328125 41.3125 20.84375 42.59375 
Q 24.359375 43.890625 29.203125 43.890625 
Q 34.328125 43.890625 38.421875 42.328125 
Q 42.53125 40.765625 45.40625 37.90625 
Q 48.296875 35.0625 49.859375 31.109375 
Q 51.421875 27.15625 51.421875 22.40625 
" id="LiberationSans-35"/>
      </defs>
      <g style="fill:#262626;" transform="translate(43.1025 250.983035714)scale(0.08 -0.08)">
       <use xlink:href="#LiberationSans-35"/>
       <use x="55.615234375" xlink:href="#LiberationSans-30"/>
      </g>
     </g>
    </g>
    <g id="ytick_3">
     <g id="line2d_11">
      <path clip-path="url(#pe06807c249)" d="M 57.6 212.708571 
L 414.72 212.708571 
" style="fill:none;stroke:#cccccc;stroke-linecap:round;stroke-width:0.8;"/>
     </g>
     <g id="line2d_12">
      <g>
       <use style="fill:#262626;stroke:#262626;stroke-width:0.8;" x="57.6" xlink:href="#m43efd37d6f" y="212.708571429"/>
      </g>
     </g>
     <g id="line2d_13">
      <g>
       <use style="fill:#262626;stroke:#262626;stroke-width:0.8;" x="414.72" xlink:href="#m43efd37d6f" y="212.708571429"/>
      </g>
     </g>
     <g id="text_5">
      <!-- 100 -->
      <defs>
       <path d="M 7.625 0 
L 7.625 7.46875 
L 25.140625 7.46875 
L 25.140625 60.40625 
L 9.625 49.3125 
L 9.625 57.625 
L 25.875 68.796875 
L 33.984375 68.796875 
L 33.984375 7.46875 
L 50.734375 7.46875 
L 50.734375 0 
z
" id="LiberationSans-31"/>
      </defs>
      <g style="fill:#262626;" transform="translate(38.65375 214.777321429)scale(0.08 -0.08)">
       <use xlink:href="#LiberationSans-31"/>
       <use x="55.615234375" xlink:href="#LiberationSans-30"/>
       <use x="111.23046875" xlink:href="#LiberationSans-30"/>
      </g>
     </g>
    </g>
    <g id="ytick_4">
     <g id="line2d_14">
      <path clip-path="url(#pe06807c249)" d="M 57.6 176.502857 
L 414.72 176.502857 
" style="fill:none;stroke:#cccccc;stroke-linecap:round;stroke-width:0.8;"/>
     </g>
     <g id="line2d_15">
      <g>
       <use style="fill:#262626;stroke:#262626;stroke-width:0.8;" x="57.6" xlink:href="#m43efd37d6f" y="176.502857143"/>
      </g>
     </g>
     <g id="line2d_16">
      <g>
       <use style="fill:#262626;stroke:#262626;stroke-width:0.8;" x="414.72" xlink:href="#m43efd37d6f" y="176.502857143"/>
      </g>
     </g>
     <g id="text_6">
      <!-- 150 -->
      <g style="fill:#262626;" transform="translate(38.65375 178.571607143)scale(0.08 -0.08)">
       <use xlink:href="#LiberationSans-31"/>
       <use x="55.615234375" xlink:href="#LiberationSans-35"/>
       <use x="111.23046875" xlink:href="#LiberationSans-30"/>
      </g>
     </g>
    </g>
    <g id="ytick_5">
     <g id="line2d_17">
      <path clip-path="url(#pe06807c249)" d="M 57.6 140.297143 
L 414.72 140.297143 
" style="fill:none;stroke:#cccccc;stroke-linecap:round;stroke-width:0.8;"/>
     </g>
     <g id="line2d_18">
      <g>
       <use style="fill:#262626;stroke:#262626;stroke-width:0.8;" x="57.6" xlink:href="#m43efd37d6f" y="140.297142857"/>
      </g>
     </g>
     <g id="line2d_19">
      <g>
       <use style="fill:#262626;stroke:#262626;stroke-width:0.8;" x="414.72" xlink:href="#m43efd37d6f" y="140.297142857"/>
      </g>
     </g>
     <g id="text_7">
      <!-- 200 -->
      <defs>
       <path d="M 5.03125 0 
L 5.03125 6.203125 
Q 7.515625 11.921875 11.109375 16.28125 
Q 14.703125 20.65625 18.65625 24.1875 
Q 22.609375 27.734375 26.484375 30.765625 
Q 30.375 33.796875 33.5 36.8125 
Q 36.625 39.84375 38.546875 43.15625 
Q 40.484375 46.484375 40.484375 50.6875 
Q 40.484375 53.609375 39.59375 55.828125 
Q 38.71875 58.0625 37.0625 59.5625 
Q 35.40625 61.078125 33.078125 61.828125 
Q 30.765625 62.59375 27.9375 62.59375 
Q 25.296875 62.59375 22.96875 61.859375 
Q 20.65625 61.140625 18.84375 59.671875 
Q 17.046875 58.203125 15.890625 56.03125 
Q 14.75 53.859375 14.40625 50.984375 
L 5.421875 51.8125 
Q 5.859375 55.515625 7.46875 58.78125 
Q 9.078125 62.0625 11.90625 64.53125 
Q 14.75 67 18.71875 68.40625 
Q 22.703125 69.828125 27.9375 69.828125 
Q 33.0625 69.828125 37.0625 68.609375 
Q 41.0625 67.390625 43.8125 64.984375 
Q 46.578125 62.59375 48.046875 59.078125 
Q 49.515625 55.5625 49.515625 50.984375 
Q 49.515625 47.515625 48.265625 44.390625 
Q 47.015625 41.265625 44.9375 38.421875 
Q 42.875 35.59375 40.140625 32.953125 
Q 37.40625 30.328125 34.421875 27.8125 
Q 31.453125 25.296875 28.421875 22.828125 
Q 25.390625 20.359375 22.71875 17.859375 
Q 20.0625 15.375 17.96875 12.8125 
Q 15.875 10.25 14.703125 7.46875 
L 50.59375 7.46875 
L 50.59375 0 
z
" id="LiberationSans-32"/>
      </defs>
      <g style="fill:#262626;" transform="translate(38.65375 142.365892857)scale(0.08 -0.08)">
       <use xlink:href="#LiberationSans-32"/>
       <use x="55.615234375" xlink:href="#LiberationSans-30"/>
       <use x="111.23046875" xlink:href="#LiberationSans-30"/>
      </g>
     </g>
    </g>
    <g id="ytick_6">
     <g id="line2d_20">
      <path clip-path="url(#pe06807c249)" d="M 57.6 104.091429 
L 414.72 104.091429 
" style="fill:none;stroke:#cccccc;stroke-linecap:round;stroke-width:0.8;"/>
     </g>
     <g id="line2d_21">
      <g>
       <use style="fill:#262626;stroke:#262626;stroke-width:0.8;" x="57.6" xlink:href="#m43efd37d6f" y="104.091428571"/>
      </g>
     </g>
     <g id="line2d_22">
      <g>
       <use style="fill:#262626;stroke:#262626;stroke-width:0.8;" x="414.72" xlink:href="#m43efd37d6f" y="104.091428571"/>
      </g>
     </g>
     <g id="text_8">
      <!-- 250 -->
      <g style="fill:#262626;" transform="translate(38.65375 106.160178571)scale(0.08 -0.08)">
       <use xlink:href="#LiberationSans-32"/>
       <use x="55.615234375" xlink:href="#LiberationSans-35"/>
       <use x="111.23046875" xlink:href="#LiberationSans-30"/>
      </g>
     </g>
    </g>
    <g id="ytick_7">
     <g id="line2d_23">
      <path clip-path="url(#pe06807c249)" d="M 57.6 67.885714 
L 414.72 67.885714 
" style="fill:none;stroke:#cccccc;stroke-linecap:round;stroke-width:0.8;"/>
     </g>
     <g id="line2d_24">
      <g>
       <use style="fill:#262626;stroke:#262626;stroke-width:0.8;" x="57.6" xlink:href="#m43efd37d6f" y="67.8857142857"/>
      </g>
     </g>
     <g id="line2d_25">
      <g>
       <use style="fill:#262626;stroke:#262626;stroke-width:0.8;" x="414.72" xlink:href="#m43efd37d6f" y="67.8857142857"/>
      </g>
     </g>
     <g id="text_9">
      <!-- 300 -->
      <defs>
       <path d="M 51.21875 19 
Q 51.21875 14.265625 49.671875 10.546875 
Q 48.140625 6.84375 45.1875 4.265625 
Q 42.234375 1.703125 37.859375 0.359375 
Q 33.5 -0.984375 27.875 -0.984375 
Q 21.484375 -0.984375 17.109375 0.609375 
Q 12.75 2.203125 9.90625 4.8125 
Q 7.078125 7.421875 5.65625 10.765625 
Q 4.25 14.109375 3.8125 17.671875 
L 12.890625 18.5 
Q 13.28125 15.765625 14.328125 13.515625 
Q 15.375 11.28125 17.1875 9.671875 
Q 19 8.0625 21.625 7.171875 
Q 24.265625 6.296875 27.875 6.296875 
Q 34.515625 6.296875 38.296875 9.5625 
Q 42.09375 12.84375 42.09375 19.28125 
Q 42.09375 23.09375 40.40625 25.40625 
Q 38.71875 27.734375 36.203125 29.03125 
Q 33.6875 30.328125 30.734375 30.765625 
Q 27.78125 31.203125 25.296875 31.203125 
L 20.3125 31.203125 
L 20.3125 38.8125 
L 25.09375 38.8125 
Q 27.59375 38.8125 30.265625 39.328125 
Q 32.953125 39.84375 35.171875 41.1875 
Q 37.40625 42.53125 38.84375 44.828125 
Q 40.28125 47.125 40.28125 50.6875 
Q 40.28125 56.203125 37.03125 59.390625 
Q 33.796875 62.59375 27.390625 62.59375 
Q 21.578125 62.59375 17.984375 59.609375 
Q 14.40625 56.640625 13.8125 51.21875 
L 4.984375 51.90625 
Q 5.515625 56.453125 7.46875 59.8125 
Q 9.421875 63.1875 12.421875 65.40625 
Q 15.4375 67.625 19.28125 68.71875 
Q 23.140625 69.828125 27.484375 69.828125 
Q 33.25 69.828125 37.390625 68.375 
Q 41.546875 66.9375 44.1875 64.46875 
Q 46.828125 62.015625 48.0625 58.6875 
Q 49.3125 55.375 49.3125 51.609375 
Q 49.3125 48.578125 48.484375 45.9375 
Q 47.65625 43.3125 45.890625 41.203125 
Q 44.140625 39.109375 41.421875 37.59375 
Q 38.71875 36.078125 34.90625 35.296875 
L 34.90625 35.109375 
Q 39.0625 34.671875 42.140625 33.21875 
Q 45.21875 31.78125 47.21875 29.625 
Q 49.21875 27.484375 50.21875 24.75 
Q 51.21875 22.015625 51.21875 19 
" id="LiberationSans-33"/>
      </defs>
      <g style="fill:#262626;" transform="translate(38.65375 69.9544642857)scale(0.08 -0.08)">
       <use xlink:href="#LiberationSans-33"/>
       <use x="55.615234375" xlink:href="#LiberationSans-30"/>
       <use x="111.23046875" xlink:href="#LiberationSans-30"/>
      </g>
     </g>
    </g>
    <g id="ytick_8">
     <g id="line2d_26">
      <path clip-path="url(#pe06807c249)" d="M 57.6 31.68 
L 414.72 31.68 
" style="fill:none;stroke:#cccccc;stroke-linecap:round;stroke-width:0.8;"/>
     </g>
     <g id="line2d_27">
      <g>
       <use style="fill:#262626;stroke:#262626;stroke-width:0.8;" x="57.6" xlink:href="#m43efd37d6f" y="31.68"/>
      </g>
     </g>
     <g id="line2d_28">
      <g>
       <use style="fill:#262626;stroke:#262626;stroke-width:0.8;" x="414.72" xlink:href="#m43efd37d6f" y="31.68"/>
      </g>
     </g>
     <g id="text_10">
      <!-- 350 -->
      <g style="fill:#262626;" transform="translate(38.65375 33.74875)scale(0.08 -0.08)">
       <use xlink:href="#LiberationSans-33"/>
       <use x="55.615234375" xlink:href="#LiberationSans-35"/>
       <use x="111.23046875" xlink:href="#LiberationSans-30"/>
      </g>
     </g>
    </g>
   </g>
   <g id="PolyCollection_1">
    <defs>
     <path d="M 148.181589 -62.922467 
L 145.578411 -62.922467 
L 145.240958 -65.004906 
L 144.839526 -67.087345 
L 144.368563 -69.169785 
L 143.823738 -71.252224 
L 143.202403 -73.334663 
L 142.504052 -75.417102 
L 141.730732 -77.499541 
L 140.887389 -79.58198 
L 139.9821 -81.664419 
L 139.026158 -83.746858 
L 138.033997 -85.829297 
L 137.02293 -87.911736 
L 136.012698 -89.994175 
L 135.024848 -92.076614 
L 134.081952 -94.159053 
L 133.206709 -96.241492 
L 132.42097 -98.323931 
L 131.744743 -100.40637 
L 131.195225 -102.488809 
L 130.785912 -104.571248 
L 130.525839 -106.653687 
L 130.418989 -108.736126 
L 130.463873 -110.818565 
L 130.653338 -112.901004 
L 130.97456 -114.983443 
L 131.409247 -117.065883 
L 131.934016 -119.148322 
L 132.520931 -121.230761 
L 133.138175 -123.3132 
L 133.750824 -125.395639 
L 134.321704 -127.478078 
L 134.812313 -129.560517 
L 135.183783 -131.642956 
L 135.397874 -133.725395 
L 135.417988 -135.807834 
L 135.21019 -137.890273 
L 134.744227 -139.972712 
L 133.994528 -142.055151 
L 132.941163 -144.13759 
L 131.570735 -146.220029 
L 129.877168 -148.302468 
L 127.862359 -150.384907 
L 125.536638 -152.467346 
L 122.919005 -154.549785 
L 120.037103 -156.632224 
L 116.926889 -158.714663 
L 113.631994 -160.797102 
L 110.202767 -162.879541 
L 106.695019 -164.96198 
L 103.168507 -167.04442 
L 99.685208 -169.126859 
L 96.307468 -171.209298 
L 93.096099 -173.291737 
L 90.10852 -175.374176 
L 87.397042 -177.456615 
L 85.007372 -179.539054 
L 82.97742 -181.621493 
L 81.336458 -183.703932 
L 80.104662 -185.786371 
L 79.293045 -187.86881 
L 78.903763 -189.951249 
L 78.930743 -192.033688 
L 79.360579 -194.116127 
L 80.173603 -196.198566 
L 81.345072 -198.281005 
L 82.846358 -200.363444 
L 84.646096 -202.445883 
L 86.711204 -204.528322 
L 89.007757 -206.610761 
L 91.501677 -208.6932 
L 94.159243 -210.775639 
L 96.947451 -212.858078 
L 99.834236 -214.940517 
L 102.788609 -217.022957 
L 105.780751 -219.105396 
L 108.782095 -221.187835 
L 111.765428 -223.270274 
L 114.70504 -225.352713 
L 117.576921 -227.435152 
L 120.358995 -229.517591 
L 123.031391 -231.60003 
L 125.576714 -233.682469 
L 127.9803 -235.764908 
L 130.230418 -237.847347 
L 132.318416 -239.929786 
L 134.238767 -242.012225 
L 135.989034 -244.094664 
L 137.569733 -246.177103 
L 138.984109 -248.259542 
L 140.237834 -250.341981 
L 141.338648 -252.42442 
L 142.29596 -254.506859 
L 143.12043 -256.589298 
L 143.823556 -258.671737 
L 144.417276 -260.754176 
L 144.913612 -262.836615 
L 145.324353 -264.919055 
L 145.660797 -267.001494 
L 145.933544 -269.083933 
L 147.826456 -269.083933 
L 147.826456 -269.083933 
L 148.099203 -267.001494 
L 148.435647 -264.919055 
L 148.846388 -262.836615 
L 149.342724 -260.754176 
L 149.936444 -258.671737 
L 150.63957 -256.589298 
L 151.46404 -254.506859 
L 152.421352 -252.42442 
L 153.522166 -250.341981 
L 154.775891 -248.259542 
L 156.190267 -246.177103 
L 157.770966 -244.094664 
L 159.521233 -242.012225 
L 161.441584 -239.929786 
L 163.529582 -237.847347 
L 165.7797 -235.764908 
L 168.183286 -233.682469 
L 170.728609 -231.60003 
L 173.401005 -229.517591 
L 176.183079 -227.435152 
L 179.05496 -225.352713 
L 181.994572 -223.270274 
L 184.977905 -221.187835 
L 187.979249 -219.105396 
L 190.971391 -217.022957 
L 193.925764 -214.940517 
L 196.812549 -212.858078 
L 199.600757 -210.775639 
L 202.258323 -208.6932 
L 204.752243 -206.610761 
L 207.048796 -204.528322 
L 209.113904 -202.445883 
L 210.913642 -200.363444 
L 212.414928 -198.281005 
L 213.586397 -196.198566 
L 214.399421 -194.116127 
L 214.829257 -192.033688 
L 214.856237 -189.951249 
L 214.466955 -187.86881 
L 213.655338 -185.786371 
L 212.423542 -183.703932 
L 210.78258 -181.621493 
L 208.752628 -179.539054 
L 206.362958 -177.456615 
L 203.65148 -175.374176 
L 200.663901 -173.291737 
L 197.452532 -171.209298 
L 194.074792 -169.126859 
L 190.591493 -167.04442 
L 187.064981 -164.96198 
L 183.557233 -162.879541 
L 180.128006 -160.797102 
L 176.833111 -158.714663 
L 173.722897 -156.632224 
L 170.840995 -154.549785 
L 168.223362 -152.467346 
L 165.897641 -150.384907 
L 163.882832 -148.302468 
L 162.189265 -146.220029 
L 160.818837 -144.13759 
L 159.765472 -142.055151 
L 159.015773 -139.972712 
L 158.54981 -137.890273 
L 158.342012 -135.807834 
L 158.362126 -133.725395 
L 158.576217 -131.642956 
L 158.947687 -129.560517 
L 159.438296 -127.478078 
L 160.009176 -125.395639 
L 160.621825 -123.3132 
L 161.239069 -121.230761 
L 161.825984 -119.148322 
L 162.350753 -117.065883 
L 162.78544 -114.983443 
L 163.106662 -112.901004 
L 163.296127 -110.818565 
L 163.341011 -108.736126 
L 163.234161 -106.653687 
L 162.974088 -104.571248 
L 162.564775 -102.488809 
L 162.015257 -100.40637 
L 161.33903 -98.323931 
L 160.553291 -96.241492 
L 159.678048 -94.159053 
L 158.735152 -92.076614 
L 157.747302 -89.994175 
L 156.73707 -87.911736 
L 155.726003 -85.829297 
L 154.733842 -83.746858 
L 153.7779 -81.664419 
L 152.872611 -79.58198 
L 152.029268 -77.499541 
L 151.255948 -75.417102 
L 150.557597 -73.334663 
L 149.936262 -71.252224 
L 149.391437 -69.169785 
L 148.920474 -67.087345 
L 148.519042 -65.004906 
L 148.181589 -62.922467 
z
" id="ma8c8362783" style="stroke:#4c4c4c;stroke-width:1.4;"/>
    </defs>
    <g clip-path="url(#pe06807c249)">
     <use style="fill:#5875a4;stroke:#4c4c4c;stroke-width:1.4;" x="0.0" xlink:href="#ma8c8362783" y="316.8"/>
    </g>
   </g>
   <g id="PolyCollection_2">
    <defs>
     <path d="M 326.663953 -65.868608 
L 324.216047 -65.868608 
L 323.878603 -67.694044 
L 323.472292 -69.519479 
L 322.990142 -71.344914 
L 322.426353 -73.17035 
L 321.776839 -74.995785 
L 321.03976 -76.82122 
L 320.216021 -78.646656 
L 319.309672 -80.472091 
L 318.3282 -82.297526 
L 317.282627 -84.122962 
L 316.187433 -85.948397 
L 315.060238 -87.773832 
L 313.921282 -89.599268 
L 312.792691 -91.424703 
L 311.697568 -93.250138 
L 310.658958 -95.075574 
L 309.698733 -96.901009 
L 308.836469 -98.726444 
L 308.088361 -100.55188 
L 307.466246 -102.377315 
L 306.976771 -104.20275 
L 306.620745 -106.028186 
L 306.392715 -107.853621 
L 306.280753 -109.679056 
L 306.266496 -111.504492 
L 306.325408 -113.329927 
L 306.427293 -115.155362 
L 306.53703 -116.980798 
L 306.615546 -118.806233 
L 306.621007 -120.631668 
L 306.510218 -122.457104 
L 306.240217 -124.282539 
L 305.770013 -126.107974 
L 305.062434 -127.93341 
L 304.085993 -129.758845 
L 302.816697 -131.58428 
L 301.239678 -133.409716 
L 299.350528 -135.235151 
L 297.156221 -137.060586 
L 294.67551 -138.886022 
L 291.938709 -140.711457 
L 288.986823 -142.536892 
L 285.870016 -144.362328 
L 282.6455 -146.187763 
L 279.374942 -148.013198 
L 276.121586 -149.838633 
L 272.947293 -151.664069 
L 269.909746 -153.489504 
L 267.060049 -155.314939 
L 264.440921 -157.140375 
L 262.085649 -158.96581 
L 260.017844 -160.791245 
L 258.252015 -162.616681 
L 256.794822 -164.442116 
L 255.64686 -166.267551 
L 254.804698 -168.092987 
L 254.262937 -169.918422 
L 254.016 -171.743857 
L 254.059461 -173.569293 
L 254.39074 -175.394728 
L 255.009116 -177.220163 
L 255.915087 -179.045599 
L 257.109188 -180.871034 
L 258.590468 -182.696469 
L 260.354845 -184.521905 
L 262.39359 -186.34734 
L 264.692137 -188.172775 
L 267.229417 -189.998211 
L 269.977774 -191.823646 
L 272.903517 -193.649081 
L 275.968025 -195.474517 
L 279.129296 -197.299952 
L 282.343769 -199.125387 
L 285.568234 -200.950823 
L 288.761652 -202.776258 
L 291.886726 -204.601693 
L 294.911099 -206.427129 
L 297.808135 -208.252564 
L 300.557247 -210.077999 
L 303.143816 -211.903435 
L 305.558771 -213.72887 
L 307.797918 -215.554305 
L 309.861114 -217.379741 
L 311.751399 -219.205176 
L 313.474155 -221.030611 
L 315.036359 -222.856047 
L 316.445977 -224.681482 
L 317.711497 -226.506917 
L 318.841625 -228.332353 
L 319.845086 -230.157788 
L 320.730539 -231.983223 
L 321.506549 -233.808659 
L 322.18159 -235.634094 
L 322.764058 -237.459529 
L 323.262271 -239.284965 
L 323.684446 -241.1104 
L 324.038653 -242.935835 
L 324.332744 -244.761271 
L 324.574267 -246.586706 
L 326.305733 -246.586706 
L 326.305733 -246.586706 
L 326.547256 -244.761271 
L 326.841347 -242.935835 
L 327.195554 -241.1104 
L 327.617729 -239.284965 
L 328.115942 -237.459529 
L 328.69841 -235.634094 
L 329.373451 -233.808659 
L 330.149461 -231.983223 
L 331.034914 -230.157788 
L 332.038375 -228.332353 
L 333.168503 -226.506917 
L 334.434023 -224.681482 
L 335.843641 -222.856047 
L 337.405845 -221.030611 
L 339.128601 -219.205176 
L 341.018886 -217.379741 
L 343.082082 -215.554305 
L 345.321229 -213.72887 
L 347.736184 -211.903435 
L 350.322753 -210.077999 
L 353.071865 -208.252564 
L 355.968901 -206.427129 
L 358.993274 -204.601693 
L 362.118348 -202.776258 
L 365.311766 -200.950823 
L 368.536231 -199.125387 
L 371.750704 -197.299952 
L 374.911975 -195.474517 
L 377.976483 -193.649081 
L 380.902226 -191.823646 
L 383.650583 -189.998211 
L 386.187863 -188.172775 
L 388.48641 -186.34734 
L 390.525155 -184.521905 
L 392.289532 -182.696469 
L 393.770812 -180.871034 
L 394.964913 -179.045599 
L 395.870884 -177.220163 
L 396.48926 -175.394728 
L 396.820539 -173.569293 
L 396.864 -171.743857 
L 396.617063 -169.918422 
L 396.075302 -168.092987 
L 395.23314 -166.267551 
L 394.085178 -164.442116 
L 392.627985 -162.616681 
L 390.862156 -160.791245 
L 388.794351 -158.96581 
L 386.439079 -157.140375 
L 383.819951 -155.314939 
L 380.970254 -153.489504 
L 377.932707 -151.664069 
L 374.758414 -149.838633 
L 371.505058 -148.013198 
L 368.2345 -146.187763 
L 365.009984 -144.362328 
L 361.893177 -142.536892 
L 358.941291 -140.711457 
L 356.20449 -138.886022 
L 353.723779 -137.060586 
L 351.529472 -135.235151 
L 349.640322 -133.409716 
L 348.063303 -131.58428 
L 346.794007 -129.758845 
L 345.817566 -127.93341 
L 345.109987 -126.107974 
L 344.639783 -124.282539 
L 344.369782 -122.457104 
L 344.258993 -120.631668 
L 344.264454 -118.806233 
L 344.34297 -116.980798 
L 344.452707 -115.155362 
L 344.554592 -113.329927 
L 344.613504 -111.504492 
L 344.599247 -109.679056 
L 344.487285 -107.853621 
L 344.259255 -106.028186 
L 343.903229 -104.20275 
L 343.413754 -102.377315 
L 342.791639 -100.55188 
L 342.043531 -98.726444 
L 341.181267 -96.901009 
L 340.221042 -95.075574 
L 339.182432 -93.250138 
L 338.087309 -91.424703 
L 336.958718 -89.599268 
L 335.819762 -87.773832 
L 334.692567 -85.948397 
L 333.597373 -84.122962 
L 332.5518 -82.297526 
L 331.570328 -80.472091 
L 330.663979 -78.646656 
L 329.84024 -76.82122 
L 329.103161 -74.995785 
L 328.453647 -73.17035 
L 327.889858 -71.344914 
L 327.407708 -69.519479 
L 327.001397 -67.694044 
L 326.663953 -65.868608 
z
" id="m9155630b2b" style="stroke:#4c4c4c;stroke-width:1.4;"/>
    </defs>
    <g clip-path="url(#pe06807c249)">
     <use style="fill:#5f9e6e;stroke:#4c4c4c;stroke-width:1.4;" x="0.0" xlink:href="#m9155630b2b" y="316.8"/>
    </g>
   </g>
   <g id="line2d_29">
    <path clip-path="url(#pe06807c249)" d="M 146.88 147.538286 
L 146.88 85.264457 
" style="fill:none;stroke:#4c4c4c;stroke-linecap:round;stroke-width:1.4;"/>
   </g>
   <g id="line2d_30">
    <path clip-path="url(#pe06807c249)" d="M 146.88 146.090057 
L 146.88 117.125486 
" style="fill:none;stroke:#4c4c4c;stroke-linecap:round;stroke-width:4.2;"/>
   </g>
   <g id="line2d_31">
    <path clip-path="url(#pe06807c249)" d="M 325.44 196.053943 
L 325.44 101.919086 
" style="fill:none;stroke:#4c4c4c;stroke-linecap:round;stroke-width:1.4;"/>
   </g>
   <g id="line2d_32">
    <path clip-path="url(#pe06807c249)" d="M 325.44 159.848229 
L 325.44 132.331886 
" style="fill:none;stroke:#4c4c4c;stroke-linecap:round;stroke-width:4.2;"/>
   </g>
   <g id="patch_3">
    <path d="M 57.6 31.68 
L 414.72 31.68 
" style="fill:none;stroke:#cccccc;stroke-linecap:square;stroke-linejoin:miter;"/>
   </g>
   <g id="patch_4">
    <path d="M 414.72 285.12 
L 414.72 31.68 
" style="fill:none;stroke:#cccccc;stroke-linecap:square;stroke-linejoin:miter;"/>
   </g>
   <g id="patch_5">
    <path d="M 57.6 285.12 
L 414.72 285.12 
" style="fill:none;stroke:#cccccc;stroke-linecap:square;stroke-linejoin:miter;"/>
   </g>
   <g id="patch_6">
    <path d="M 57.6 285.12 
L 57.6 31.68 
" style="fill:none;stroke:#cccccc;stroke-linecap:square;stroke-linejoin:miter;"/>
   </g>
   <g id="PathCollection_1">
    <defs>
     <path d="M 0 1.4 
C 0.371284 1.4 0.727412 1.252487 0.989949 0.989949 
C 1.252487 0.727412 1.4 0.371284 1.4 0 
C 1.4 -0.371284 1.252487 -0.727412 0.989949 -0.989949 
C 0.727412 -1.252487 0.371284 -1.4 0 -1.4 
C -0.371284 -1.4 -0.727412 -1.252487 -0.989949 -0.989949 
C -1.252487 -0.727412 -1.4 -0.371284 -1.4 0 
C -1.4 0.371284 -1.252487 0.727412 -0.989949 0.989949 
C -0.727412 1.252487 -0.371284 1.4 0 1.4 
z
" id="m9b7619fa2a" style="stroke:#4c4c4c;stroke-width:0.24;"/>
    </defs>
    <g clip-path="url(#pe06807c249)">
     <use style="fill:#ffffff;stroke:#4c4c4c;stroke-width:0.24;" x="146.88" xlink:href="#m9b7619fa2a" y="131.607771429"/>
    </g>
   </g>
   <g id="PathCollection_2">
    <g clip-path="url(#pe06807c249)">
     <use style="fill:#ffffff;stroke:#4c4c4c;stroke-width:0.24;" x="325.44" xlink:href="#m9b7619fa2a" y="146.814171429"/>
    </g>
   </g>
   <g id="text_11">
    <!-- p-values(AAA - -&gt; Asn) : 6.27e-05 -->
    <defs>
     <path d="M 46.390625 14.59375 
Q 46.390625 10.890625 44.9375 7.984375 
Q 43.5 5.078125 40.765625 3.09375 
Q 38.03125 1.125 34.046875 0.0625 
Q 30.078125 -0.984375 24.953125 -0.984375 
Q 20.359375 -0.984375 16.671875 -0.265625 
Q 12.984375 0.4375 10.203125 2 
Q 7.421875 3.5625 5.53125 6.125 
Q 3.65625 8.6875 2.78125 12.40625 
L 10.546875 13.921875 
Q 11.671875 9.671875 15.1875 7.6875 
Q 18.703125 5.71875 24.953125 5.71875 
Q 27.78125 5.71875 30.140625 6.109375 
Q 32.515625 6.5 34.21875 7.453125 
Q 35.9375 8.40625 36.890625 9.984375 
Q 37.84375 11.578125 37.84375 13.921875 
Q 37.84375 16.3125 36.71875 17.84375 
Q 35.59375 19.390625 33.59375 20.40625 
Q 31.59375 21.4375 28.734375 22.1875 
Q 25.875 22.953125 22.46875 23.875 
Q 19.28125 24.703125 16.15625 25.734375 
Q 13.03125 26.765625 10.515625 28.4375 
Q 8.015625 30.125 6.453125 32.609375 
Q 4.890625 35.109375 4.890625 38.875 
Q 4.890625 46.09375 10.03125 49.875 
Q 15.1875 53.65625 25.046875 53.65625 
Q 33.796875 53.65625 38.9375 50.578125 
Q 44.09375 47.515625 45.453125 40.71875 
L 37.546875 39.75 
Q 37.109375 41.796875 35.9375 43.1875 
Q 34.765625 44.578125 33.109375 45.4375 
Q 31.453125 46.296875 29.375 46.65625 
Q 27.296875 47.015625 25.046875 47.015625 
Q 19.09375 47.015625 16.25 45.203125 
Q 13.421875 43.40625 13.421875 39.75 
Q 13.421875 37.59375 14.46875 36.203125 
Q 15.53125 34.8125 17.40625 33.859375 
Q 19.28125 32.90625 21.921875 32.203125 
Q 24.5625 31.5 27.734375 30.71875 
Q 29.828125 30.171875 32.03125 29.5625 
Q 34.234375 28.953125 36.296875 28.09375 
Q 38.375 27.25 40.203125 26.09375 
Q 42.046875 24.953125 43.40625 23.34375 
Q 44.78125 21.734375 45.578125 19.578125 
Q 46.390625 17.4375 46.390625 14.59375 
" id="LiberationSans-73"/>
     <path d="M 50.59375 61.671875 
Q 45.40625 53.765625 41.0625 46.453125 
Q 36.71875 39.15625 33.59375 31.75 
Q 30.46875 24.359375 28.734375 16.578125 
Q 27 8.796875 27 0 
L 17.828125 0 
Q 17.828125 8.25 19.78125 16.1875 
Q 21.734375 24.125 25.046875 31.765625 
Q 28.375 39.40625 32.765625 46.78125 
Q 37.15625 54.15625 42.09375 61.328125 
L 5.125 61.328125 
L 5.125 68.796875 
L 50.59375 68.796875 
z
" id="LiberationSans-37"/>
     <path d="M 4.9375 7.515625 
L 4.9375 14.984375 
L 46.828125 32.90625 
L 4.9375 50.78125 
L 4.9375 58.296875 
L 53.515625 37.890625 
L 53.515625 27.875 
z
" id="LiberationSans-3e"/>
     <path d="M 51.421875 26.65625 
Q 51.421875 20.65625 50.4375 15.578125 
Q 49.46875 10.5 47.1875 6.828125 
Q 44.921875 3.171875 41.1875 1.09375 
Q 37.453125 -0.984375 31.984375 -0.984375 
Q 26.3125 -0.984375 22.0625 1.171875 
Q 17.828125 3.328125 15.578125 8.203125 
L 15.328125 8.203125 
Q 15.375 8.109375 15.40625 7.328125 
Q 15.4375 6.546875 15.453125 5.375 
Q 15.484375 4.203125 15.5 2.75 
Q 15.53125 1.3125 15.53125 -0.09375 
L 15.53125 -20.75 
L 6.734375 -20.75 
L 6.734375 42.046875 
Q 6.734375 43.953125 6.703125 45.703125 
Q 6.6875 47.46875 6.640625 48.90625 
Q 6.59375 50.34375 6.546875 51.359375 
Q 6.5 52.390625 6.453125 52.828125 
L 14.9375 52.828125 
Q 14.984375 52.6875 15.0625 51.796875 
Q 15.140625 50.921875 15.203125 49.671875 
Q 15.28125 48.4375 15.359375 47.015625 
Q 15.4375 45.609375 15.4375 44.34375 
L 15.625 44.34375 
Q 16.84375 46.875 18.40625 48.65625 
Q 19.96875 50.4375 21.96875 51.578125 
Q 23.96875 52.734375 26.4375 53.25 
Q 28.90625 53.765625 31.984375 53.765625 
Q 37.453125 53.765625 41.1875 51.8125 
Q 44.921875 49.859375 47.1875 46.3125 
Q 49.46875 42.78125 50.4375 37.765625 
Q 51.421875 32.765625 51.421875 26.65625 
M 42.1875 26.46875 
Q 42.1875 31.34375 41.59375 35.15625 
Q 41.015625 38.96875 39.578125 41.59375 
Q 38.140625 44.234375 35.734375 45.59375 
Q 33.34375 46.96875 29.734375 46.96875 
Q 26.8125 46.96875 24.21875 46.140625 
Q 21.625 45.3125 19.703125 42.96875 
Q 17.78125 40.625 16.65625 36.5 
Q 15.53125 32.375 15.53125 25.78125 
Q 15.53125 20.171875 16.453125 16.28125 
Q 17.390625 12.40625 19.171875 10.015625 
Q 20.953125 7.625 23.578125 6.5625 
Q 26.21875 5.515625 29.640625 5.515625 
Q 33.296875 5.515625 35.71875 6.921875 
Q 38.140625 8.34375 39.578125 11.03125 
Q 41.015625 13.71875 41.59375 17.59375 
Q 42.1875 21.484375 42.1875 26.46875 
" id="LiberationSans-70"/>
     <path d="M 29.9375 0 
L 19.53125 0 
L 0.34375 52.828125 
L 9.71875 52.828125 
L 21.34375 18.453125 
Q 21.6875 17.390625 22.140625 15.84375 
Q 22.609375 14.3125 23.09375 12.640625 
Q 23.578125 10.984375 24 9.4375 
Q 24.421875 7.90625 24.703125 6.890625 
Q 25 7.90625 25.453125 9.4375 
Q 25.921875 10.984375 26.40625 12.59375 
Q 26.90625 14.203125 27.421875 15.734375 
Q 27.9375 17.28125 28.328125 18.359375 
L 40.328125 52.828125 
L 49.65625 52.828125 
z
" id="LiberationSans-76"/>
     <path d="M 15.328125 52.828125 
L 15.328125 19.34375 
Q 15.328125 15.484375 15.890625 12.890625 
Q 16.453125 10.296875 17.71875 8.703125 
Q 19 7.125 21.0625 6.46875 
Q 23.140625 5.8125 26.21875 5.8125 
Q 29.34375 5.8125 31.859375 6.90625 
Q 34.375 8.015625 36.15625 10.078125 
Q 37.9375 12.15625 38.90625 15.203125 
Q 39.890625 18.265625 39.890625 22.21875 
L 39.890625 52.828125 
L 48.6875 52.828125 
L 48.6875 11.28125 
Q 48.6875 9.625 48.703125 7.78125 
Q 48.734375 5.953125 48.78125 4.3125 
Q 48.828125 2.6875 48.875 1.515625 
Q 48.921875 0.34375 48.96875 0 
L 40.671875 0 
Q 40.625 0.25 40.578125 1.3125 
Q 40.53125 2.390625 40.453125 3.78125 
Q 40.375 5.171875 40.328125 6.609375 
Q 40.28125 8.0625 40.28125 9.03125 
L 40.140625 9.03125 
Q 38.875 6.734375 37.359375 4.875 
Q 35.84375 3.03125 33.84375 1.734375 
Q 31.84375 0.4375 29.25 -0.265625 
Q 26.65625 -0.984375 23.25 -0.984375 
Q 18.84375 -0.984375 15.671875 0.09375 
Q 12.5 1.171875 10.453125 3.421875 
Q 8.40625 5.671875 7.453125 9.1875 
Q 6.5 12.703125 6.5 17.625 
L 6.5 52.828125 
z
" id="LiberationSans-75"/>
     <path d="M 51.21875 22.515625 
Q 51.21875 17.328125 49.78125 13 
Q 48.34375 8.6875 45.53125 5.578125 
Q 42.71875 2.484375 38.5625 0.75 
Q 34.421875 -0.984375 29 -0.984375 
Q 23 -0.984375 18.5 1.3125 
Q 14.015625 3.609375 11.03125 7.921875 
Q 8.0625 12.25 6.5625 18.53125 
Q 5.078125 24.8125 5.078125 32.8125 
Q 5.078125 42 6.765625 48.921875 
Q 8.453125 55.859375 11.625 60.5 
Q 14.796875 65.140625 19.359375 67.484375 
Q 23.921875 69.828125 29.6875 69.828125 
Q 33.203125 69.828125 36.28125 69.09375 
Q 39.359375 68.359375 41.875 66.71875 
Q 44.390625 65.09375 46.28125 62.40625 
Q 48.1875 59.71875 49.3125 55.8125 
L 40.921875 54.296875 
Q 39.546875 58.734375 36.546875 60.71875 
Q 33.546875 62.703125 29.59375 62.703125 
Q 25.984375 62.703125 23.046875 60.984375 
Q 20.125 59.28125 18.0625 55.875 
Q 16.015625 52.484375 14.90625 47.359375 
Q 13.8125 42.234375 13.8125 35.40625 
Q 16.21875 39.84375 20.5625 42.15625 
Q 24.90625 44.484375 30.515625 44.484375 
Q 35.203125 44.484375 39.015625 42.96875 
Q 42.828125 41.453125 45.53125 38.59375 
Q 48.25 35.75 49.734375 31.671875 
Q 51.21875 27.59375 51.21875 22.515625 
M 42.28125 22.125 
Q 42.28125 25.6875 41.40625 28.5625 
Q 40.53125 31.453125 38.765625 33.46875 
Q 37.015625 35.5 34.421875 36.59375 
Q 31.84375 37.703125 28.421875 37.703125 
Q 26.03125 37.703125 23.578125 36.984375 
Q 21.140625 36.28125 19.15625 34.6875 
Q 17.1875 33.109375 15.9375 30.515625 
Q 14.703125 27.9375 14.703125 24.21875 
Q 14.703125 20.40625 15.671875 17.109375 
Q 16.65625 13.8125 18.484375 11.375 
Q 20.3125 8.9375 22.890625 7.515625 
Q 25.484375 6.109375 28.71875 6.109375 
Q 31.890625 6.109375 34.40625 7.203125 
Q 36.921875 8.296875 38.671875 10.375 
Q 40.4375 12.453125 41.359375 15.421875 
Q 42.28125 18.40625 42.28125 22.125 
" id="LiberationSans-36"/>
     <path d="M 4.4375 22.65625 
L 4.4375 30.46875 
L 28.859375 30.46875 
L 28.859375 22.65625 
z
" id="LiberationSans-2d"/>
     <path d="M 9.125 0 
L 9.125 10.6875 
L 18.65625 10.6875 
L 18.65625 0 
z
" id="LiberationSans-2e"/>
     <path d="M 9.125 42.71875 
L 9.125 52.828125 
L 18.65625 52.828125 
L 18.65625 42.71875 
z
M 9.125 0 
L 9.125 10.109375 
L 18.65625 10.109375 
L 18.65625 0 
z
" id="LiberationSans-3a"/>
     <path d="M 6.203125 25.984375 
Q 6.203125 32.765625 7.21875 38.96875 
Q 8.25 45.171875 10.4375 50.875 
Q 12.640625 56.59375 16.0625 61.953125 
Q 19.484375 67.328125 24.21875 72.46875 
L 32.71875 72.46875 
Q 28.125 67.328125 24.78125 61.9375 
Q 21.4375 56.546875 19.28125 50.796875 
Q 17.140625 45.0625 16.09375 38.859375 
Q 15.046875 32.671875 15.046875 25.875 
Q 15.046875 19.09375 16.09375 12.890625 
Q 17.140625 6.6875 19.28125 0.921875 
Q 21.4375 -4.828125 24.78125 -10.203125 
Q 28.125 -15.578125 32.71875 -20.703125 
L 24.21875 -20.703125 
Q 19.484375 -15.578125 16.0625 -10.203125 
Q 12.640625 -4.828125 10.4375 0.875 
Q 8.25 6.59375 7.21875 12.765625 
Q 6.203125 18.953125 6.203125 25.78125 
z
" id="LiberationSans-28"/>
     <path d="M 27.09375 25.78125 
Q 27.09375 18.953125 26.0625 12.765625 
Q 25.046875 6.59375 22.84375 0.875 
Q 20.65625 -4.828125 17.234375 -10.203125 
Q 13.8125 -15.578125 9.078125 -20.703125 
L 0.59375 -20.703125 
Q 5.171875 -15.578125 8.515625 -10.203125 
Q 11.859375 -4.828125 14 0.921875 
Q 16.15625 6.6875 17.203125 12.890625 
Q 18.265625 19.09375 18.265625 25.875 
Q 18.265625 32.671875 17.203125 38.859375 
Q 16.15625 45.0625 14 50.796875 
Q 11.859375 56.546875 8.515625 61.9375 
Q 5.171875 67.328125 0.59375 72.46875 
L 9.078125 72.46875 
Q 13.8125 67.328125 17.234375 61.953125 
Q 20.65625 56.59375 22.84375 50.875 
Q 25.046875 45.171875 26.0625 38.96875 
Q 27.09375 32.765625 27.09375 25.984375 
z
" id="LiberationSans-29"/>
     <path id="LiberationSans-20"/>
     <path d="M 56.984375 0 
L 49.125 20.125 
L 17.78125 20.125 
L 9.859375 0 
L 0.203125 0 
L 28.265625 68.796875 
L 38.875 68.796875 
L 66.5 0 
z
M 37.5 50.09375 
Q 36.71875 52.046875 36 54.046875 
Q 35.296875 56.0625 34.765625 57.6875 
Q 34.234375 59.328125 33.859375 60.421875 
Q 33.5 61.53125 33.453125 61.765625 
Q 33.34375 61.53125 33 60.40625 
Q 32.671875 59.28125 32.109375 57.609375 
Q 31.546875 55.953125 30.828125 53.953125 
Q 30.125 51.953125 29.390625 50 
L 20.609375 27.390625 
L 46.34375 27.390625 
z
" id="LiberationSans-41"/>
    </defs>
    <g style="fill:#262626;" transform="translate(165.33825 26.68)scale(0.096 -0.096)">
     <use xlink:href="#LiberationSans-70"/>
     <use x="55.615234375" xlink:href="#LiberationSans-2d"/>
     <use x="88.916015625" xlink:href="#LiberationSans-76"/>
     <use x="138.916015625" xlink:href="#LiberationSans-61"/>
     <use x="194.53125" xlink:href="#LiberationSans-6c"/>
     <use x="216.748046875" xlink:href="#LiberationSans-75"/>
     <use x="272.36328125" xlink:href="#LiberationSans-65"/>
     <use x="327.978515625" xlink:href="#LiberationSans-73"/>
     <use x="377.978515625" xlink:href="#LiberationSans-28"/>
     <use x="411.279296875" xlink:href="#LiberationSans-41"/>
     <use x="477.978515625" xlink:href="#LiberationSans-41"/>
     <use x="544.677734375" xlink:href="#LiberationSans-41"/>
     <use x="611.298828125" xlink:href="#LiberationSans-20"/>
     <use x="639.08203125" xlink:href="#LiberationSans-2d"/>
     <use x="672.3828125" xlink:href="#LiberationSans-2d"/>
     <use x="705.68359375" xlink:href="#LiberationSans-3e"/>
     <use x="764.08203125" xlink:href="#LiberationSans-20"/>
     <use x="791.787109375" xlink:href="#LiberationSans-41"/>
     <use x="858.486328125" xlink:href="#LiberationSans-73"/>
     <use x="908.486328125" xlink:href="#LiberationSans-6e"/>
     <use x="964.1015625" xlink:href="#LiberationSans-29"/>
     <use x="997.40234375" xlink:href="#LiberationSans-20"/>
     <use x="1025.18554688" xlink:href="#LiberationSans-3a"/>
     <use x="1052.96875" xlink:href="#LiberationSans-20"/>
     <use x="1080.75195312" xlink:href="#LiberationSans-36"/>
     <use x="1136.3671875" xlink:href="#LiberationSans-2e"/>
     <use x="1164.15039062" xlink:href="#LiberationSans-32"/>
     <use x="1219.765625" xlink:href="#LiberationSans-37"/>
     <use x="1275.38085938" xlink:href="#LiberationSans-65"/>
     <use x="1330.99609375" xlink:href="#LiberationSans-2d"/>
     <use x="1364.296875" xlink:href="#LiberationSans-30"/>
     <use x="1419.91210938" xlink:href="#LiberationSans-35"/>
    </g>
   </g>
  </g>
 </g>
 <defs>
  <clipPath id="pe06807c249">
   <rect height="253.44" width="357.12" x="57.6" y="31.68"/>
  </clipPath>
 </defs>
</svg>
